<?xml version="1.0" encoding="utf-8" standalone="no"?>
<!DOCTYPE svg PUBLIC "-//W3C//DTD SVG 1.1//EN"
  "http://www.w3.org/Graphics/SVG/1.1/DTD/svg11.dtd">
<svg xmlns:xlink="http://www.w3.org/1999/xlink" width="371.52pt" height="295.630125pt" viewBox="0 0 371.52 295.630125" xmlns="http://www.w3.org/2000/svg" version="1.1">
 <metadata>
  <rdf:RDF xmlns:dc="http://purl.org/dc/elements/1.1/" xmlns:cc="http://creativecommons.org/ns#" xmlns:rdf="http://www.w3.org/1999/02/22-rdf-syntax-ns#">
   <cc:Work>
    <dc:type rdf:resource="http://purl.org/dc/dcmitype/StillImage"/>
    <dc:date>2025-01-07T16:04:27.567000</dc:date>
    <dc:format>image/svg+xml</dc:format>
    <dc:creator>
     <cc:Agent>
      <dc:title>Matplotlib v3.8.0, https://matplotlib.org/</dc:title>
     </cc:Agent>
    </dc:creator>
   </cc:Work>
  </rdf:RDF>
 </metadata>
 <defs>
  <style type="text/css">*{stroke-linejoin: round; stroke-linecap: butt}</style>
 </defs>
 <g id="figure_1">
  <g id="patch_1">
   <path d="M 0 295.630125 
L 371.52 295.630125 
L 371.52 0 
L 0 0 
L 0 295.630125 
z
" style="fill: none; opacity: 0"/>
  </g>
  <g id="axes_1">
   <g id="line2d_1">
    <path d="M 23.432727 236.537761 
L 26.770883 233.801437 
L 30.107953 231.064029 
L 33.442906 228.324502 
L 36.774762 225.581879 
L 40.102598 222.835235 
L 43.425545 220.083702 
L 46.74279 217.326467 
L 50.053574 214.562772 
L 53.357194 211.791913 
L 56.653002 209.013242 
L 59.940406 206.226165 
L 63.218866 203.430146 
L 66.487901 200.624702 
L 69.747082 197.809404 
L 72.996038 194.98388 
L 76.234449 192.147812 
L 79.462055 189.300938 
L 82.678647 186.443051 
L 85.884074 183.573998 
L 89.078238 180.693683 
L 92.261097 177.802062 
L 95.432664 174.89915 
L 98.593007 171.985013 
L 101.74225 169.059777 
L 104.880571 166.123618 
L 108.008203 163.176771 
L 111.125434 160.219523 
L 114.232609 157.252218 
L 117.330126 154.275256 
L 120.418439 151.289089 
L 123.498057 148.294227 
L 126.569543 145.291234 
L 129.633517 142.280729 
L 132.690653 139.263385 
L 135.741681 136.239933 
L 138.787384 133.211157 
L 141.828602 130.177896 
L 144.86623 127.141044 
L 147.901217 124.101552 
L 150.934568 121.060423 
L 153.967343 118.018719 
L 157.000657 114.977553 
L 160.03568 111.938097 
L 163.073637 108.901574 
L 166.115808 105.869266 
L 169.163529 102.842507 
L 172.21819 99.822689 
L 175.281236 96.811256 
L 178.354169 93.809709 
L 181.438543 90.819604 
" clip-path="url(#p0533061caf)" style="fill: none; stroke: #1f77b4; stroke-width: 1.5; stroke-linecap: square"/>
   </g>
   <g id="line2d_2">
    <path d="M 23.432727 236.537761 
L 185.76 74.210489 
" clip-path="url(#p0533061caf)" style="fill: none; stroke: #1f77b4; stroke-opacity: 0.3; stroke-width: 1.5; stroke-linecap: square"/>
   </g>
   <g id="line2d_3">
    <path d="M 181.438543 90.819604 
L 184.50276 94.002724 
L 187.556656 97.196166 
L 190.602856 100.397304 
L 193.643874 103.603623 
L 196.682117 106.812718 
L 199.719879 110.022294 
L 202.759345 113.230166 
L 205.802589 116.43426 
L 208.851575 119.632611 
L 211.908158 122.823366 
L 214.974082 126.00478 
L 218.05098 129.17522 
L 221.140376 132.333162 
L 224.243683 135.477192 
L 227.362204 138.606009 
L 230.497133 141.718418 
L 233.649552 144.813337 
L 236.820433 147.889793 
L 240.01064 150.946924 
L 243.220924 153.983978 
L 246.451927 157.000312 
L 249.704182 159.995396 
L 252.978109 162.968806 
L 256.27402 165.920233 
L 259.592117 168.849474 
L 262.93249 171.756438 
L 266.295121 174.641145 
L 269.679879 177.503725 
L 273.086526 180.344415 
L 276.514712 183.163567 
L 279.963977 185.96164 
L 283.43375 188.739204 
L 286.923352 191.49694 
L 290.431992 194.235638 
L 293.95877 196.956198 
L 297.502674 199.659632 
L 301.062583 202.34706 
L 304.637267 205.019714 
L 308.225383 207.678936 
L 311.82548 210.326176 
L 315.435997 212.962997 
L 319.055261 215.591071 
L 322.68149 218.212179 
L 326.312792 220.828215 
L 329.947164 223.441181 
L 333.582494 226.053189 
L 337.216558 228.666463 
L 340.847023 231.283336 
L 344.471445 233.906251 
L 348.087273 236.537761 
" clip-path="url(#p0533061caf)" style="fill: none; stroke: #ff7f0e; stroke-width: 1.5; stroke-linecap: square"/>
   </g>
   <g id="line2d_4">
    <path d="M 185.76 74.210489 
L 348.087273 236.537761 
" clip-path="url(#p0533061caf)" style="fill: none; stroke: #ff7f0e; stroke-opacity: 0.3; stroke-width: 1.5; stroke-linecap: square"/>
   </g>
   <g id="text_1">
    <!-- Displaced structure -->
    <g transform="translate(127.26375 16.318125) scale(0.12 -0.12)">
     <defs>
      <path id="DejaVuSans-44" d="M 1259 4147 
L 1259 519 
L 2022 519 
Q 2988 519 3436 956 
Q 3884 1394 3884 2338 
Q 3884 3275 3436 3711 
Q 2988 4147 2022 4147 
L 1259 4147 
z
M 628 4666 
L 1925 4666 
Q 3281 4666 3915 4102 
Q 4550 3538 4550 2338 
Q 4550 1131 3912 565 
Q 3275 0 1925 0 
L 628 0 
L 628 4666 
z
" transform="scale(0.015625)"/>
      <path id="DejaVuSans-69" d="M 603 3500 
L 1178 3500 
L 1178 0 
L 603 0 
L 603 3500 
z
M 603 4863 
L 1178 4863 
L 1178 4134 
L 603 4134 
L 603 4863 
z
" transform="scale(0.015625)"/>
      <path id="DejaVuSans-73" d="M 2834 3397 
L 2834 2853 
Q 2591 2978 2328 3040 
Q 2066 3103 1784 3103 
Q 1356 3103 1142 2972 
Q 928 2841 928 2578 
Q 928 2378 1081 2264 
Q 1234 2150 1697 2047 
L 1894 2003 
Q 2506 1872 2764 1633 
Q 3022 1394 3022 966 
Q 3022 478 2636 193 
Q 2250 -91 1575 -91 
Q 1294 -91 989 -36 
Q 684 19 347 128 
L 347 722 
Q 666 556 975 473 
Q 1284 391 1588 391 
Q 1994 391 2212 530 
Q 2431 669 2431 922 
Q 2431 1156 2273 1281 
Q 2116 1406 1581 1522 
L 1381 1569 
Q 847 1681 609 1914 
Q 372 2147 372 2553 
Q 372 3047 722 3315 
Q 1072 3584 1716 3584 
Q 2034 3584 2315 3537 
Q 2597 3491 2834 3397 
z
" transform="scale(0.015625)"/>
      <path id="DejaVuSans-70" d="M 1159 525 
L 1159 -1331 
L 581 -1331 
L 581 3500 
L 1159 3500 
L 1159 2969 
Q 1341 3281 1617 3432 
Q 1894 3584 2278 3584 
Q 2916 3584 3314 3078 
Q 3713 2572 3713 1747 
Q 3713 922 3314 415 
Q 2916 -91 2278 -91 
Q 1894 -91 1617 61 
Q 1341 213 1159 525 
z
M 3116 1747 
Q 3116 2381 2855 2742 
Q 2594 3103 2138 3103 
Q 1681 3103 1420 2742 
Q 1159 2381 1159 1747 
Q 1159 1113 1420 752 
Q 1681 391 2138 391 
Q 2594 391 2855 752 
Q 3116 1113 3116 1747 
z
" transform="scale(0.015625)"/>
      <path id="DejaVuSans-6c" d="M 603 4863 
L 1178 4863 
L 1178 0 
L 603 0 
L 603 4863 
z
" transform="scale(0.015625)"/>
      <path id="DejaVuSans-61" d="M 2194 1759 
Q 1497 1759 1228 1600 
Q 959 1441 959 1056 
Q 959 750 1161 570 
Q 1363 391 1709 391 
Q 2188 391 2477 730 
Q 2766 1069 2766 1631 
L 2766 1759 
L 2194 1759 
z
M 3341 1997 
L 3341 0 
L 2766 0 
L 2766 531 
Q 2569 213 2275 61 
Q 1981 -91 1556 -91 
Q 1019 -91 701 211 
Q 384 513 384 1019 
Q 384 1609 779 1909 
Q 1175 2209 1959 2209 
L 2766 2209 
L 2766 2266 
Q 2766 2663 2505 2880 
Q 2244 3097 1772 3097 
Q 1472 3097 1187 3025 
Q 903 2953 641 2809 
L 641 3341 
Q 956 3463 1253 3523 
Q 1550 3584 1831 3584 
Q 2591 3584 2966 3190 
Q 3341 2797 3341 1997 
z
" transform="scale(0.015625)"/>
      <path id="DejaVuSans-63" d="M 3122 3366 
L 3122 2828 
Q 2878 2963 2633 3030 
Q 2388 3097 2138 3097 
Q 1578 3097 1268 2742 
Q 959 2388 959 1747 
Q 959 1106 1268 751 
Q 1578 397 2138 397 
Q 2388 397 2633 464 
Q 2878 531 3122 666 
L 3122 134 
Q 2881 22 2623 -34 
Q 2366 -91 2075 -91 
Q 1284 -91 818 406 
Q 353 903 353 1747 
Q 353 2603 823 3093 
Q 1294 3584 2113 3584 
Q 2378 3584 2631 3529 
Q 2884 3475 3122 3366 
z
" transform="scale(0.015625)"/>
      <path id="DejaVuSans-65" d="M 3597 1894 
L 3597 1613 
L 953 1613 
Q 991 1019 1311 708 
Q 1631 397 2203 397 
Q 2534 397 2845 478 
Q 3156 559 3463 722 
L 3463 178 
Q 3153 47 2828 -22 
Q 2503 -91 2169 -91 
Q 1331 -91 842 396 
Q 353 884 353 1716 
Q 353 2575 817 3079 
Q 1281 3584 2069 3584 
Q 2775 3584 3186 3129 
Q 3597 2675 3597 1894 
z
M 3022 2063 
Q 3016 2534 2758 2815 
Q 2500 3097 2075 3097 
Q 1594 3097 1305 2825 
Q 1016 2553 972 2059 
L 3022 2063 
z
" transform="scale(0.015625)"/>
      <path id="DejaVuSans-64" d="M 2906 2969 
L 2906 4863 
L 3481 4863 
L 3481 0 
L 2906 0 
L 2906 525 
Q 2725 213 2448 61 
Q 2172 -91 1784 -91 
Q 1150 -91 751 415 
Q 353 922 353 1747 
Q 353 2572 751 3078 
Q 1150 3584 1784 3584 
Q 2172 3584 2448 3432 
Q 2725 3281 2906 2969 
z
M 947 1747 
Q 947 1113 1208 752 
Q 1469 391 1925 391 
Q 2381 391 2643 752 
Q 2906 1113 2906 1747 
Q 2906 2381 2643 2742 
Q 2381 3103 1925 3103 
Q 1469 3103 1208 2742 
Q 947 2381 947 1747 
z
" transform="scale(0.015625)"/>
      <path id="DejaVuSans-20" transform="scale(0.015625)"/>
      <path id="DejaVuSans-74" d="M 1172 4494 
L 1172 3500 
L 2356 3500 
L 2356 3053 
L 1172 3053 
L 1172 1153 
Q 1172 725 1289 603 
Q 1406 481 1766 481 
L 2356 481 
L 2356 0 
L 1766 0 
Q 1100 0 847 248 
Q 594 497 594 1153 
L 594 3053 
L 172 3053 
L 172 3500 
L 594 3500 
L 594 4494 
L 1172 4494 
z
" transform="scale(0.015625)"/>
      <path id="DejaVuSans-72" d="M 2631 2963 
Q 2534 3019 2420 3045 
Q 2306 3072 2169 3072 
Q 1681 3072 1420 2755 
Q 1159 2438 1159 1844 
L 1159 0 
L 581 0 
L 581 3500 
L 1159 3500 
L 1159 2956 
Q 1341 3275 1631 3429 
Q 1922 3584 2338 3584 
Q 2397 3584 2469 3576 
Q 2541 3569 2628 3553 
L 2631 2963 
z
" transform="scale(0.015625)"/>
      <path id="DejaVuSans-75" d="M 544 1381 
L 544 3500 
L 1119 3500 
L 1119 1403 
Q 1119 906 1312 657 
Q 1506 409 1894 409 
Q 2359 409 2629 706 
Q 2900 1003 2900 1516 
L 2900 3500 
L 3475 3500 
L 3475 0 
L 2900 0 
L 2900 538 
Q 2691 219 2414 64 
Q 2138 -91 1772 -91 
Q 1169 -91 856 284 
Q 544 659 544 1381 
z
M 1991 3584 
L 1991 3584 
z
" transform="scale(0.015625)"/>
     </defs>
     <use xlink:href="#DejaVuSans-44"/>
     <use xlink:href="#DejaVuSans-69" x="77.001953"/>
     <use xlink:href="#DejaVuSans-73" x="104.785156"/>
     <use xlink:href="#DejaVuSans-70" x="156.884766"/>
     <use xlink:href="#DejaVuSans-6c" x="220.361328"/>
     <use xlink:href="#DejaVuSans-61" x="248.144531"/>
     <use xlink:href="#DejaVuSans-63" x="309.423828"/>
     <use xlink:href="#DejaVuSans-65" x="364.404297"/>
     <use xlink:href="#DejaVuSans-64" x="425.927734"/>
     <use xlink:href="#DejaVuSans-20" x="489.404297"/>
     <use xlink:href="#DejaVuSans-73" x="521.191406"/>
     <use xlink:href="#DejaVuSans-74" x="573.291016"/>
     <use xlink:href="#DejaVuSans-72" x="612.5"/>
     <use xlink:href="#DejaVuSans-75" x="653.613281"/>
     <use xlink:href="#DejaVuSans-63" x="716.992188"/>
     <use xlink:href="#DejaVuSans-74" x="771.972656"/>
     <use xlink:href="#DejaVuSans-75" x="811.181641"/>
     <use xlink:href="#DejaVuSans-72" x="874.560547"/>
     <use xlink:href="#DejaVuSans-65" x="913.423828"/>
    </g>
   </g>
  </g>
 </g>
 <defs>
  <clipPath id="p0533061caf">
   <rect x="7.2" y="22.318125" width="357.12" height="266.112"/>
  </clipPath>
 </defs>
</svg>
